# xmcd
#
# Track frame offsets:
#	150
#	14596
#	28802
#	43330
#	65679
#	81195
#	99161
#	111754
#	137532
#	152353
#	171804
#	186957
#	204259
#	218023
#	230700
#	248891
#	258970
#
# Disc length: 3491 seconds
# Revision: 0
# Processed by: cddbd v1.5.2PL0 Copyright (c) Steve Scherf et al.
# Submitted via: dBpowerAMP V12.0
#
DISCID=e60da111
DTITLE=Nevade Slim and Cimarron Sue - Westerners
DYEAR=2010
DGENRE=Country
TTITLE0=I Ride The Rane
TTITLE1=Show Me Mister
TTITLE2=Cattle Call
TTITLE3=Cowboy's Farewell
TTITLE4=The Cowboy That Made Me Blue
TTITLE5=They Call The Wind Mariah
TTITLE6=Common Wisdom
TTITLE7=Border Affair
TTITLE8=Don't Fence Me In
TTITLE9=Coyotes
TTITLE10=Home To You
TTITLE11=The West
TTITLE12=I've Got Spurs
TTITLE13=Waiti' For Ice Cream
TTITLE14=The Ranch That I Can't See
TTITLE15=Happy Trails
TTITLE16=Buddy And Me
EXTD=
EXTT0=
EXTT1=
EXTT2=
EXTT3=
EXTT4=
EXTT5=
EXTT6=
EXTT7=
EXTT8=
EXTT9=
EXTT10=
EXTT11=
EXTT12=
EXTT13=
EXTT14=
EXTT15=
EXTT16=
PLAYORDER=
